<?xml version="1.0" encoding="UTF-8" standalone="no"?>
<!DOCTYPE svg PUBLIC "-//W3C//DTD SVG 1.1//EN" "http://www.w3.org/Graphics/SVG/1.1/DTD/svg11.dtd">
<svg width="100%" height="100%" viewBox="0 0 44 44" version="1.1" xmlns="http://www.w3.org/2000/svg" xmlns:xlink="http://www.w3.org/1999/xlink" xml:space="preserve" xmlns:serif="http://www.serif.com/" style="fill-rule:evenodd;clip-rule:evenodd;stroke-linejoin:round;stroke-miterlimit:2;">
    <rect id="apple-menu" x="0" y="0" width="44" height="44" style="fill:none;"/>
    <path d="M34.219,28.783C33.761,29.857 33.219,30.845 32.591,31.753C31.735,32.991 31.034,33.849 30.494,34.325C29.657,35.106 28.759,35.506 27.799,35.529C27.109,35.529 26.277,35.33 25.309,34.926C24.337,34.524 23.444,34.325 22.628,34.325C21.772,34.325 20.854,34.524 19.872,34.926C18.888,35.33 18.096,35.54 17.49,35.561C16.568,35.601 15.65,35.189 14.733,34.325C14.148,33.807 13.416,32.919 12.54,31.662C11.599,30.32 10.826,28.763 10.22,26.988C9.571,25.07 9.246,23.214 9.246,21.416C9.246,19.358 9.684,17.582 10.563,16.094C11.253,14.899 12.172,13.956 13.321,13.263C14.47,12.571 15.712,12.219 17.05,12.196C17.782,12.196 18.741,12.426 19.934,12.877C21.123,13.33 21.887,13.559 22.222,13.559C22.472,13.559 23.32,13.291 24.758,12.756C26.118,12.259 27.266,12.054 28.206,12.135C30.754,12.343 32.668,13.362 33.941,15.198C31.662,16.598 30.535,18.56 30.558,21.077C30.578,23.037 31.279,24.668 32.657,25.964C33.281,26.565 33.978,27.029 34.754,27.359C34.586,27.854 34.408,28.328 34.219,28.783ZM28,4C27.994,5.747 27.376,7.496 26.318,8.808C25.26,10.121 23.763,10.997 22,11C22.021,7.486 24.441,4.011 28,4Z" style="fill-opacity:0.94;fill-rule:nonzero;"/>
</svg>
