<?xml version="1.0" encoding="UTF-8" standalone="no"?>
<!DOCTYPE svg PUBLIC "-//W3C//DTD SVG 1.1//EN" "http://www.w3.org/Graphics/SVG/1.1/DTD/svg11.dtd">
<svg width="100%" height="100%" viewBox="0 0 22 20" version="1.1" xmlns="http://www.w3.org/2000/svg" xmlns:xlink="http://www.w3.org/1999/xlink" xml:space="preserve" xmlns:serif="http://www.serif.com/" style="fill-rule:evenodd;clip-rule:evenodd;stroke-linejoin:round;stroke-miterlimit:2;">
    <rect id="chevron-down-small" x="-0" y="0" width="22" height="20" style="fill:none;"/>
    <path d="M5.414,5.414C5.149,5.68 5,6.039 5,6.414C5,6.789 5.149,7.149 5.414,7.414C6.593,8.593 8.33,10.33 9.293,11.293C9.746,11.746 10.36,12 11,12C11,12 11,12 11,12C11.64,12 12.254,11.746 12.707,11.293C13.627,10.373 15.272,8.728 16.586,7.414C17.138,6.862 17.138,5.967 16.586,5.414C16.586,5.414 16.586,5.414 16.586,5.414C16.32,5.149 15.961,5 15.586,5C15.211,5 14.851,5.149 14.586,5.414C12.879,7.121 11,9 11,9C11,9 8.873,6.873 7.414,5.414C6.862,4.862 5.967,4.862 5.414,5.414C5.414,5.414 5.414,5.414 5.414,5.414Z"/>
</svg>
