<?xml version="1.0" encoding="UTF-8" standalone="no"?>
<!DOCTYPE svg PUBLIC "-//W3C//DTD SVG 1.1//EN" "http://www.w3.org/Graphics/SVG/1.1/DTD/svg11.dtd">
<svg width="100%" height="100%" viewBox="0 0 36 36" version="1.1" xmlns="http://www.w3.org/2000/svg" xmlns:xlink="http://www.w3.org/1999/xlink" xml:space="preserve" xmlns:serif="http://www.serif.com/" style="fill-rule:evenodd;clip-rule:evenodd;stroke-linejoin:round;stroke-miterlimit:2;">
    <rect id="columns" x="-0" y="0" width="36" height="36" style="fill:none;"/>
    <path d="M34,10.5C34,9.12 32.88,8 31.5,8L4.5,8C3.12,8 2,9.12 2,10.5L2,25.5C2,26.88 3.12,28 4.5,28L31.5,28C32.88,28 34,26.88 34,25.5L34,10.5ZM12,10L12,26L4.5,26C4.224,26 4,25.776 4,25.5L4,10.5C4,10.224 4.224,10 4.5,10L12,10ZM24,10L31.5,10C31.776,10 32,10.224 32,10.5L32,25.5C32,25.776 31.776,26 31.5,26L24,26L24,10ZM22,10L14,10L14,26L22,26L22,10Z"/>
</svg>
