<?xml version="1.0" encoding="UTF-8" standalone="no"?>
<!DOCTYPE svg PUBLIC "-//W3C//DTD SVG 1.1//EN" "http://www.w3.org/Graphics/SVG/1.1/DTD/svg11.dtd">
<svg width="100%" height="100%" viewBox="0 0 36 36" version="1.1" xmlns="http://www.w3.org/2000/svg" xmlns:xlink="http://www.w3.org/1999/xlink" xml:space="preserve" xmlns:serif="http://www.serif.com/" style="fill-rule:evenodd;clip-rule:evenodd;stroke-linejoin:round;stroke-miterlimit:2;">
    <rect id="search" x="0" y="0" width="36" height="36" style="fill:none;"/>
    <path d="M23.327,24.742C21.603,26.153 19.4,27 17,27C11.481,27 7,22.519 7,17C7,11.481 11.481,7 17,7C22.519,7 27,11.481 27,17C27,19.4 26.153,21.603 24.742,23.327L31.707,30.293L30.293,31.707L23.327,24.742ZM17,9C21.415,9 25,12.585 25,17C25,21.415 21.415,25 17,25C12.585,25 9,21.415 9,17C9,12.585 12.585,9 17,9Z"/>
</svg>
