<?xml version="1.0" encoding="UTF-8" standalone="no"?>
<!DOCTYPE svg PUBLIC "-//W3C//DTD SVG 1.1//EN" "http://www.w3.org/Graphics/SVG/1.1/DTD/svg11.dtd">
<svg width="100%" height="100%" viewBox="0 0 36 36" version="1.1" xmlns="http://www.w3.org/2000/svg" xmlns:xlink="http://www.w3.org/1999/xlink" xml:space="preserve" xmlns:serif="http://www.serif.com/" style="fill-rule:evenodd;clip-rule:evenodd;stroke-linejoin:round;stroke-miterlimit:2;">
    <rect id="SidebarDocumentsFolder" x="0" y="0" width="36" height="36" style="fill:none;"/>
    <path d="M20,3L14,3L14,7L24,17L24,27L32,27L32,15L30,13L22,13L22,5L20,3Z" style="fill-opacity:0.4;"/>
    <path d="M22,21L20,19L12,19L12,11L10,9L4,9L4,33L22,33L22,21Z" style="fill-opacity:0.15;"/>
    <path d="M12,7L12,1L24,1L34,11L34,29L24,29L24,35L2,35L2,7L12,7ZM12,11L10,9L4,9L4,33L22,33L22,21L20,19L12,19L12,11ZM24,27L32,27L32,15L30,13L22,13L22,5L20,3L14,3L14,7L24,17L24,27ZM14,17L14,10L21,17L14,17ZM24,11L24,4L31,11L24,11Z"/>
</svg>
