<?xml version="1.0" encoding="UTF-8" standalone="no"?>
<!DOCTYPE svg PUBLIC "-//W3C//DTD SVG 1.1//EN" "http://www.w3.org/Graphics/SVG/1.1/DTD/svg11.dtd">
<svg width="100%" height="100%" viewBox="0 0 36 36" version="1.1" xmlns="http://www.w3.org/2000/svg" xmlns:xlink="http://www.w3.org/1999/xlink" xml:space="preserve" xmlns:serif="http://www.serif.com/" style="fill-rule:evenodd;clip-rule:evenodd;stroke-linejoin:round;stroke-miterlimit:2;">
    <rect id="SidebarDesktopFolder" x="0" y="0" width="36" height="36" style="fill:none;"/>
    <clipPath id="_clip1">
        <rect x="0" y="0" width="36" height="36"/>
    </clipPath>
    <g clip-path="url(#_clip1)">
        <path d="M0,8C0,5.792 1.792,4 4,4C4,4 32,4 32,4C34.208,4 36,5.792 36,8L36,28C36,30.208 34.208,32 32,32C32,32 4,32 4,32C1.792,32 0,30.208 0,28C0,28 0,8 0,8ZM32.013,30C33.107,29.993 33.993,29.106 34,28.013L34,10L2,10L2,28C2,29.104 2.896,30 4,30L32.013,30ZM34,8C34,6.9 33.111,6.007 32.013,6L4,6C2.896,6 2,6.896 2,8L34,8Z"/>
        <path d="M32.013,30C33.107,29.993 33.993,29.106 34,28.013L34,10L2,10L2,28C2,29.104 2.896,30 4,30L8,30L8,25L9,24L27,24L28,25L28,30L32.013,30Z" style="fill-opacity:0.4;"/>
        <path d="M9,30L8,30L8,25L9,24L27,24L28,25L28,30L27,30L27,30L9,30L9,30ZM14,29L14,25L10,25L10,29L14,29ZM20,29L20,25L16,25L16,29L20,29ZM26,29L26,25L22,25L22,29L26,29Z" style="fill-opacity:0.7;"/>
    </g>
</svg>
