<?xml version="1.0" encoding="UTF-8" standalone="no"?>
<!DOCTYPE svg PUBLIC "-//W3C//DTD SVG 1.1//EN" "http://www.w3.org/Graphics/SVG/1.1/DTD/svg11.dtd">
<svg width="100%" height="100%" viewBox="0 0 36 36" version="1.1" xmlns="http://www.w3.org/2000/svg" xmlns:xlink="http://www.w3.org/1999/xlink" xml:space="preserve" xmlns:serif="http://www.serif.com/" style="fill-rule:evenodd;clip-rule:evenodd;stroke-linejoin:round;stroke-miterlimit:2;">
    <rect id="SidebariCloud" x="0" y="0" width="36" height="36" style="fill:none;"/>
    <clipPath id="_clip1">
        <rect x="0" y="0" width="36" height="36"/>
    </clipPath>
    <g clip-path="url(#_clip1)">
        <path d="M7.8,28C7.8,28 28.5,28 28.5,28C31.536,28 34,25.536 34,22.5C34,19.802 32.053,17.554 29.488,17.088C28.963,16.993 28.497,16.691 28.195,16.25C27.893,15.809 27.78,15.266 27.882,14.741C27.959,14.339 28,13.924 28,13.5C28,9.913 25.087,7 21.5,7C18.785,7 16.457,8.668 15.485,11.033C15.232,11.647 14.692,12.096 14.042,12.231C13.392,12.366 12.717,12.17 12.241,11.707C11.791,11.27 11.177,11 10.5,11C9.12,11 8,12.12 8,13.5C8,13.702 8.024,13.898 8.069,14.087C8.195,14.609 8.105,15.16 7.82,15.615C7.534,16.071 7.078,16.392 6.553,16.507C3.949,17.079 2,19.407 2,22.186C2,25.394 4.598,28 7.8,28Z" style="fill-opacity:0.1;"/>
        <path d="M7.8,30C3.495,30 0,26.499 0,22.186C0,18.45 2.624,15.323 6.124,14.554C6.043,14.216 6,13.863 6,13.5C6,11.016 8.016,9 10.5,9C11.718,9 12.824,9.485 13.635,10.273C14.906,7.18 17.951,5 21.5,5C26.191,5 30,8.809 30,13.5C30,14.054 29.947,14.596 29.845,15.121C33.343,15.755 36,18.82 36,22.5C36,26.639 32.639,30 28.5,30L7.8,30ZM7.8,28C7.8,28 28.5,28 28.5,28C31.536,28 34,25.536 34,22.5C34,19.802 32.053,17.554 29.488,17.088C28.963,16.993 28.497,16.691 28.195,16.25C27.893,15.809 27.78,15.266 27.882,14.741C27.959,14.339 28,13.924 28,13.5C28,9.913 25.087,7 21.5,7C18.785,7 16.457,8.668 15.485,11.033C15.232,11.647 14.692,12.096 14.042,12.231C13.392,12.366 12.717,12.17 12.241,11.707C11.791,11.27 11.177,11 10.5,11C9.12,11 8,12.12 8,13.5C8,13.702 8.024,13.898 8.069,14.087C8.195,14.609 8.105,15.16 7.82,15.615C7.534,16.071 7.078,16.392 6.553,16.507C3.949,17.079 2,19.407 2,22.186C2,25.394 4.598,28 7.8,28Z"/>
    </g>
</svg>
