<?xml version="1.0" encoding="UTF-8" standalone="no"?>
<!DOCTYPE svg PUBLIC "-//W3C//DTD SVG 1.1//EN" "http://www.w3.org/Graphics/SVG/1.1/DTD/svg11.dtd">
<svg width="100%" height="100%" viewBox="0 0 36 36" version="1.1" xmlns="http://www.w3.org/2000/svg" xmlns:xlink="http://www.w3.org/1999/xlink" xml:space="preserve" xmlns:serif="http://www.serif.com/" style="fill-rule:evenodd;clip-rule:evenodd;stroke-linejoin:round;stroke-miterlimit:2;">
    <rect id="SidebarGenericFolder" x="0" y="0" width="36" height="36" style="fill:none;"/>
    <clipPath id="_clip1">
        <rect x="0" y="0" width="36" height="36"/>
    </clipPath>
    <g clip-path="url(#_clip1)">
        <path d="M13.414,6L34,6C35.104,6 36,6.896 36,8L36,30C36,31.104 35.104,32 34,32L2,32C0.896,32 0,31.104 0,30L0,5C0,3.896 0.896,3 2,3L10,3C10.256,3 10.512,3.098 10.707,3.293L13.414,6ZM34,30C34,30 34,30 34,30ZM3,12C2.448,12 2,12.448 2,13L2,30L34,30L34,13C34,12.448 33.552,12 33,12L3,12ZM34,10.171L34,8L13,8L13,8C12.744,8 12.488,7.902 12.293,7.707L9.586,5L2,5L2,10.171C2.313,10.06 2.649,10 3,10L33,10C33.351,10 33.687,10.06 34,10.171Z"/>
        <path d="M34,13C34,12.735 33.895,12.48 33.707,12.293C33.52,12.105 33.265,12 33,12C28.225,12 7.775,12 3,12C2.735,12 2.48,12.105 2.293,12.293C2.105,12.48 2,12.735 2,13C2,16.782 2,30 2,30L34,30L34,13Z" style="fill-opacity:0.3;"/>
        <path d="M33,10L3,10C2.66,10.001 2.324,10.058 2.003,10.17L2,10.171L2,5L9.586,5L12.293,7.707C12.488,7.902 12.744,8 13,8L13,8L34,8L34,10.171C33.687,10.06 33.351,10 33,10Z" style="fill-opacity:0.1;"/>
    </g>
</svg>
