<?xml version="1.0" encoding="UTF-8" standalone="no"?>
<!DOCTYPE svg PUBLIC "-//W3C//DTD SVG 1.1//EN" "http://www.w3.org/Graphics/SVG/1.1/DTD/svg11.dtd">
<svg width="100%" height="100%" viewBox="0 0 36 36" version="1.1" xmlns="http://www.w3.org/2000/svg" xmlns:xlink="http://www.w3.org/1999/xlink" xml:space="preserve" xmlns:serif="http://www.serif.com/" style="fill-rule:evenodd;clip-rule:evenodd;stroke-linejoin:round;stroke-miterlimit:2;">
    <rect id="SidebarMoviesFolder" x="0" y="0" width="36" height="36" style="fill:none;"/>
    <path d="M34,1L2,1L2,35L34,35L34,1ZM28,19L8,19L8,33L28,33L28,19ZM32,31L30,31L30,33L32,33L32,31ZM6,31L4,31L4,33L6,33L6,31ZM32,27L30,27L30,29L32,29L32,27ZM6,27L4,27L4,29L6,29L6,27ZM32,23L30,23L30,25L32,25L32,23ZM6,23L4,23L4,25L6,25L6,23ZM32,19L30,19L30,21L32,21L32,19ZM6,19L4,19L4,21L6,21L6,19ZM6,15L4,15L4,17L6,17L6,15ZM32,15L30,15L30,17L32,17L32,15ZM28,3L8,3L8,17L28,17L28,3ZM32,11L30,11L30,13L32,13L32,11ZM6,11L4,11L4,13L6,13L6,11ZM32,7L30,7L30,9L32,9L32,7ZM6,7L4,7L4,9L6,9L6,7ZM6,3L4,3L4,5L6,5L6,3ZM32,3L30,3L30,5L32,5L32,3Z"/>
    <rect x="8" y="19" width="20" height="14" style="fill-opacity:0.2;"/>
    <rect x="8" y="3" width="20" height="14" style="fill-opacity:0.2;"/>
</svg>
