<?xml version="1.0" encoding="UTF-8" standalone="no"?>
<!DOCTYPE svg PUBLIC "-//W3C//DTD SVG 1.1//EN" "http://www.w3.org/Graphics/SVG/1.1/DTD/svg11.dtd">
<svg width="100%" height="100%" viewBox="0 0 24 24" version="1.1" xmlns="http://www.w3.org/2000/svg" xmlns:xlink="http://www.w3.org/1999/xlink" xml:space="preserve" xmlns:serif="http://www.serif.com/" style="fill-rule:evenodd;clip-rule:evenodd;stroke-linejoin:round;stroke-miterlimit:2;">
    <rect id="window-close" x="0" y="0" width="24" height="24" style="fill:none;"/>
    <path d="M12,10.586L16.293,6.293C16.683,5.903 17.317,5.903 17.707,6.293C18.097,6.683 18.097,7.317 17.707,7.707L13.414,12L17.707,16.293C18.097,16.683 18.097,17.317 17.707,17.707C17.317,18.097 16.683,18.097 16.293,17.707L12,13.414L7.707,17.707C7.317,18.097 6.683,18.097 6.293,17.707C5.903,17.317 5.903,16.683 6.293,16.293L10.586,12L6.293,7.707C5.903,7.317 5.903,6.683 6.293,6.293C6.683,5.903 7.317,5.903 7.707,6.293L12,10.586Z"/>
</svg>
